<svg width="481" height="235" viewBox="0 0 481 235" fill="none" xmlns="http://www.w3.org/2000/svg">
<path d="M212.96 100.655C212.884 109.292 216.26 117.48 222.181 123.351L260.224 165.854C264.13 169.727 266.24 174.844 266.193 180.303C266.093 191.52 256.718 200.557 245.206 200.458C233.694 200.358 224.479 191.159 224.577 179.942C224.625 174.484 226.825 169.403 231.047 165.361L237.262 158.636L229.093 149.506L222.193 157.005C215.86 163.069 212.341 171.198 212.265 179.835C212.108 197.711 226.878 212.357 245.1 212.515C263.323 212.673 278.347 198.285 278.504 180.41C278.581 171.772 275.206 163.584 269.284 157.713L231.241 115.211C227.335 111.338 225.225 106.22 225.273 100.761C225.371 89.5441 234.747 80.5068 246.259 80.6068C257.771 80.7066 266.987 89.905 266.887 101.122C266.84 106.521 264.64 111.661 260.419 115.704L254.141 122.488L262.31 131.617L269.273 124.059C275.545 117.994 279.062 109.926 279.138 101.228C279.296 83.3527 264.587 68.7077 246.303 68.5492C228.02 68.3905 213.118 82.779 212.96 100.655Z" fill="black"/>
<path d="M66.1099 93.06V104.716H42.7696V180.167H28.3869V104.716H4.92041V93.06H66.1099ZM113.731 145.324C113.731 138.389 115.161 132.248 118.021 126.9C120.964 121.552 124.918 117.416 129.88 114.492C134.927 111.484 140.478 109.98 146.534 109.98C152.001 109.98 156.753 111.066 160.79 113.239C164.912 115.328 168.192 117.96 170.631 121.135V111.108H185.14V180.167H170.631V169.889C168.192 173.148 164.869 175.864 160.664 178.036C156.459 180.208 151.664 181.295 146.281 181.295C140.31 181.295 134.842 179.791 129.88 176.783C124.918 173.691 120.964 169.43 118.021 163.999C115.161 158.484 113.731 152.259 113.731 145.324ZM170.631 145.575C170.631 140.812 169.622 136.676 167.603 133.167C165.669 129.657 163.103 126.984 159.907 125.145C156.711 123.307 153.262 122.388 149.562 122.388C145.861 122.388 142.412 123.307 139.216 125.145C136.02 126.9 133.413 129.532 131.394 133.041C129.459 136.467 128.492 140.561 128.492 145.324C128.492 150.087 129.459 154.264 131.394 157.857C133.413 161.45 136.02 164.208 139.216 166.129C142.496 167.968 145.945 168.887 149.562 168.887C153.262 168.887 156.711 167.968 159.907 166.129C163.103 164.291 165.669 161.617 167.603 158.108C169.622 154.515 170.631 150.337 170.631 145.575ZM340.007 145.7L372.052 180.167H352.623L326.885 150.463V180.167H312.503V87.42H326.885V141.313L352.118 111.108H372.052L340.007 145.7ZM445.443 181.295C439.976 181.295 435.055 180.334 430.682 178.412C426.392 176.407 422.986 173.733 420.462 170.391C417.939 166.965 416.593 163.163 416.425 158.985H431.312C431.565 161.91 432.953 164.375 435.476 166.38C438.083 168.302 441.322 169.263 445.191 169.263C449.228 169.263 452.34 168.511 454.527 167.007C456.798 165.419 457.933 163.414 457.933 160.991C457.933 158.4 456.671 156.479 454.148 155.225C451.709 153.972 447.798 152.593 442.415 151.089C437.2 149.669 432.953 148.29 429.672 146.953C426.392 145.616 423.532 143.569 421.093 140.812C418.738 138.055 417.561 134.42 417.561 129.908C417.561 126.232 418.654 122.889 420.841 119.881C423.028 116.79 426.14 114.367 430.177 112.612C434.298 110.857 439.008 109.98 444.307 109.98C452.214 109.98 458.564 111.985 463.358 115.996C468.236 119.923 470.844 125.312 471.18 132.164H456.798C456.545 129.072 455.284 126.608 453.013 124.769C450.742 122.931 447.672 122.012 443.803 122.012C440.018 122.012 437.116 122.722 435.097 124.143C433.079 125.563 432.069 127.443 432.069 129.783C432.069 131.621 432.742 133.167 434.088 134.42C435.434 135.673 437.074 136.676 439.008 137.428C440.943 138.096 443.803 138.974 447.588 140.06C452.634 141.397 456.756 142.776 459.952 144.196C463.232 145.533 466.05 147.538 468.405 150.212C470.76 152.886 471.979 156.437 472.063 160.865C472.063 164.792 470.97 168.302 468.783 171.393C466.596 174.485 463.484 176.908 459.447 178.663C455.494 180.417 450.826 181.295 445.443 181.295Z" fill="black"/>
</svg>
